<svg width="18" height="18" viewBox="0 0 18 18" fill="none" xmlns="http://www.w3.org/2000/svg">
<path d="M9 10.5L15.75 6.75L9 3L2.25 6.75L9 10.5Z" stroke="#3F3F46"/>
<path d="M8.99994 10.5L13.6199 7.9335C14.2278 9.47706 14.4003 11.1579 14.1187 12.7927C12.2164 12.9774 10.4228 13.7652 8.99994 15.0412C7.57723 13.7654 5.784 12.9775 3.88194 12.7927C3.60009 11.1579 3.77261 9.47702 4.38069 7.9335L8.99994 10.5Z" stroke="#3F3F46"/>
<path d="M9 10.5L15.75 6.75L9 3L2.25 6.75L9 10.5ZM9 10.5L13.62 7.9335C14.2279 9.47707 14.4004 11.1579 14.1188 12.7927C12.2164 12.9774 10.4229 13.7652 9 15.0413C7.57729 13.7654 5.78406 12.9775 3.882 12.7927C3.60015 11.1579 3.77267 9.47702 4.38075 7.9335L9 10.5ZM6 15V9.375L9 7.7085" stroke="white" stroke-width="2" stroke-linecap="round" stroke-linejoin="round"/>
</svg>
