<svg width="19" height="18" viewBox="0 0 19 18" fill="none" xmlns="http://www.w3.org/2000/svg">
<path fill-rule="evenodd" clip-rule="evenodd" d="M5.61816 13.5C5.3198 13.5 5.03365 13.6185 4.82267 13.8295C4.61169 14.0405 4.49316 14.3266 4.49316 14.625C4.49316 15.0392 4.15738 15.375 3.74316 15.375C3.32895 15.375 2.99316 15.0392 2.99316 14.625C2.99316 13.9288 3.26973 13.2611 3.76201 12.7688C4.25429 12.2766 4.92197 12 5.61816 12H15.7432C16.1574 12 16.4932 12.3358 16.4932 12.75C16.4932 13.1642 16.1574 13.5 15.7432 13.5H5.61816Z" fill="white" fill-opacity="0.5"/>
<path fill-rule="evenodd" clip-rule="evenodd" d="M5.61816 2.25C5.3198 2.25 5.03365 2.36853 4.82267 2.5795C4.61169 2.79048 4.49316 3.07663 4.49316 3.375V14.625C4.49316 14.9234 4.61169 15.2095 4.82267 15.4205C5.03365 15.6315 5.3198 15.75 5.61816 15.75H14.9932V2.25H5.61816ZM5.61816 0.75H15.7432C16.1574 0.75 16.4932 1.08579 16.4932 1.5V16.5C16.4932 16.9142 16.1574 17.25 15.7432 17.25H5.61816C4.92197 17.25 4.25429 16.9734 3.76201 16.4812C3.26973 15.9889 2.99316 15.3212 2.99316 14.625V3.375C2.99316 2.67881 3.26973 2.01113 3.76201 1.51884C4.25429 1.02656 4.92197 0.75 5.61816 0.75Z" fill="white" fill-opacity="0.5"/>
</svg>
