<svg width="26" height="26" viewBox="0 0 26 26" fill="none" xmlns="http://www.w3.org/2000/svg">
<path d="M8.66667 7.58333V3.25M17.3333 7.58333V3.25M7.58333 11.9167H18.4167M5.41667 22.75H20.5833C21.158 22.75 21.7091 22.5217 22.1154 22.1154C22.5217 21.7091 22.75 21.158 22.75 20.5833V7.58333C22.75 7.0087 22.5217 6.4576 22.1154 6.05127C21.7091 5.64494 21.158 5.41667 20.5833 5.41667H5.41667C4.84203 5.41667 4.29093 5.64494 3.8846 6.05127C3.47827 6.4576 3.25 7.0087 3.25 7.58333V20.5833C3.25 21.158 3.47827 21.7091 3.8846 22.1154C4.29093 22.5217 4.84203 22.75 5.41667 22.75Z" stroke="#0EB1D2" stroke-width="2" stroke-linecap="round" stroke-linejoin="round"/>
</svg>
