<svg width="26" height="26" viewBox="0 0 26 26" fill="none" xmlns="http://www.w3.org/2000/svg">
<path d="M17.3333 8.66671V17.3334M13 11.9167V17.3334M8.66667 15.1667V17.3334M6.5 21.6667H19.5C20.0746 21.6667 20.6257 21.4384 21.0321 21.0321C21.4384 20.6258 21.6667 20.0747 21.6667 19.5V6.50004C21.6667 5.9254 21.4384 5.3743 21.0321 4.96798C20.6257 4.56165 20.0746 4.33337 19.5 4.33337H6.5C5.92536 4.33337 5.37426 4.56165 4.96794 4.96798C4.56161 5.3743 4.33333 5.9254 4.33333 6.50004V19.5C4.33333 20.0747 4.56161 20.6258 4.96794 21.0321C5.37426 21.4384 5.92536 21.6667 6.5 21.6667Z" stroke="white" stroke-opacity="0.67" stroke-width="2" stroke-linecap="round" stroke-linejoin="round"/>
</svg>
