<svg width="26" height="26" viewBox="0 0 26 26" fill="none" xmlns="http://www.w3.org/2000/svg">
<path d="M10.1605 5.11508C10.438 4.63295 11.0528 4.46776 11.5335 4.74611L18.4973 8.77821C18.978 9.05656 19.1427 9.67306 18.8652 10.1552C18.5876 10.6373 17.9729 10.8025 17.4921 10.5242L10.5284 6.49206C10.0476 6.2137 9.88292 5.59721 10.1605 5.11508Z" fill="white" fill-opacity="0.67"/>
<path d="M5.13483 13.8448C5.41239 13.3627 6.02712 13.1975 6.50786 13.4758L13.4716 17.5079C13.9524 17.7863 14.1171 18.4028 13.8395 18.8849C13.562 19.3671 12.9472 19.5322 12.4665 19.2539L5.50273 15.2218C5.02199 14.9434 4.85727 14.3269 5.13483 13.8448Z" fill="white" fill-opacity="0.67"/>
<path d="M13.4091 3.50418C13.6867 3.02205 14.3014 2.85686 14.7822 3.13522L18.264 5.15126C18.7448 5.42962 18.9095 6.04612 18.6319 6.52825C18.3544 7.01038 17.7396 7.17557 17.2589 6.89721L13.777 4.88116C13.2963 4.60281 13.1316 3.98631 13.4091 3.50418Z" fill="white" fill-opacity="0.67"/>
<path d="M5.36807 17.4718C5.64563 16.9896 6.26036 16.8244 6.74111 17.1028L10.223 19.1188C10.7037 19.3972 10.8684 20.0137 10.5909 20.4958C10.3133 20.9779 9.6986 21.1431 9.21785 20.8648L5.73597 18.8487C5.25523 18.5704 5.09051 17.9539 5.36807 17.4718Z" fill="white" fill-opacity="0.67"/>
<path d="M13.1398 8.0041L14.8807 9.01212L10.8602 15.9959L9.11927 14.9879L13.1398 8.0041Z" fill="white" fill-opacity="0.67"/>
</svg>
