<svg width="18" height="18" viewBox="0 0 18 18" fill="none" xmlns="http://www.w3.org/2000/svg">
<path d="M10.3024 16.3861C11.2723 16.215 12.1991 15.8546 13.0297 15.3254C13.8604 14.7962 14.5787 14.1086 15.1436 13.3018C15.7086 12.495 16.109 11.5849 16.3222 10.6233C16.5354 9.66173 16.5571 8.66759 16.3861 7.69764C16.215 6.72769 15.8546 5.80092 15.3254 4.97025C14.7962 4.13958 14.1086 3.42128 13.3018 2.85636C12.495 2.29144 11.5849 1.89095 10.6233 1.67778C9.66173 1.46461 8.66759 1.44291 7.69764 1.61394C6.72769 1.78497 5.80092 2.14537 4.97025 2.67456C4.13958 3.20376 3.42128 3.89138 2.85636 4.69818C2.29144 5.50497 1.89095 6.41514 1.67778 7.3767C1.46461 8.33827 1.44291 9.33241 1.61394 10.3024C1.78497 11.2723 2.14537 12.1991 2.67457 13.0297C3.20376 13.8604 3.89138 14.5787 4.69818 15.1436C5.50497 15.7086 6.41514 16.109 7.3767 16.3222C8.33827 16.5354 9.33241 16.5571 10.3024 16.3861L10.3024 16.3861Z" stroke="white" stroke-opacity="0.67" stroke-width="2"/>
<path d="M9 9L9 13.5" stroke="white" stroke-opacity="0.67" stroke-width="2" stroke-linecap="square"/>
<path d="M9 5.25L9 4.5" stroke="white" stroke-opacity="0.67" stroke-width="2" stroke-linecap="square"/>
</svg>
