<svg width="18" height="18" viewBox="0 0 18 18" fill="none" xmlns="http://www.w3.org/2000/svg">
<path fill-rule="evenodd" clip-rule="evenodd" d="M17.0303 0.969676C17.3232 1.26257 17.3232 1.73744 17.0303 2.03034L8.78033 10.2803C8.48744 10.5732 8.01257 10.5732 7.71967 10.2803C7.42678 9.98744 7.42678 9.51257 7.71967 9.21968L15.9697 0.969676C16.2626 0.676782 16.7374 0.676782 17.0303 0.969676Z" fill="white" fill-opacity="0.5"/>
<path fill-rule="evenodd" clip-rule="evenodd" d="M17.0303 0.969676C17.2341 1.1734 17.3031 1.47583 17.2079 1.74777L11.9579 16.7478C11.8563 17.038 11.5878 17.2368 11.2806 17.2494C10.9733 17.2619 10.6895 17.0856 10.5646 16.8046L7.6818 10.3182L1.1954 7.43536C0.914389 7.31047 0.738092 7.02669 0.750627 6.71943C0.763163 6.41217 0.961991 6.1437 1.25224 6.04211L16.2522 0.792112C16.5242 0.696933 16.8266 0.765947 17.0303 0.969676ZM3.53331 6.83296L8.55461 9.06465C8.72428 9.14006 8.85995 9.27573 8.93536 9.4454L11.167 14.4667L15.2775 2.72248L3.53331 6.83296Z" fill="white" fill-opacity="0.5"/>
</svg>
