<svg width="26" height="26" viewBox="0 0 26 26" fill="none" xmlns="http://www.w3.org/2000/svg">
<path fill-rule="evenodd" clip-rule="evenodd" d="M4.8365 16.7531C5.85233 15.7373 7.23008 15.1666 8.66667 15.1666H17.3333C18.7699 15.1666 20.1477 15.7373 21.1635 16.7531C22.1793 17.769 22.75 19.1467 22.75 20.5833V22.75C22.75 23.3483 22.265 23.8333 21.6667 23.8333C21.0684 23.8333 20.5833 23.3483 20.5833 22.75V20.5833C20.5833 19.7213 20.2409 18.8947 19.6314 18.2852C19.0219 17.6757 18.1953 17.3333 17.3333 17.3333H8.66667C7.80471 17.3333 6.97806 17.6757 6.36857 18.2852C5.75908 18.8947 5.41667 19.7213 5.41667 20.5833V22.75C5.41667 23.3483 4.93164 23.8333 4.33333 23.8333C3.73502 23.8333 3.25 23.3483 3.25 22.75V20.5833C3.25 19.1467 3.82068 17.769 4.8365 16.7531Z" fill="white" fill-opacity="0.67"/>
<path fill-rule="evenodd" clip-rule="evenodd" d="M13 4.33329C11.2051 4.33329 9.75 5.78837 9.75 7.58329C9.75 9.37822 11.2051 10.8333 13 10.8333C14.7949 10.8333 16.25 9.37822 16.25 7.58329C16.25 5.78837 14.7949 4.33329 13 4.33329ZM7.58334 7.58329C7.58334 4.59175 10.0085 2.16663 13 2.16663C15.9915 2.16663 18.4167 4.59175 18.4167 7.58329C18.4167 10.5748 15.9915 13 13 13C10.0085 13 7.58334 10.5748 7.58334 7.58329Z" fill="white" fill-opacity="0.67"/>
</svg>
