<svg width="18" height="18" viewBox="0 0 18 18" fill="none" xmlns="http://www.w3.org/2000/svg">
<path d="M3.65326 3C2.72732 4.86439 2.24695 6.91833 2.25001 9C2.25001 11.1555 2.75476 13.1925 3.65326 15M14.2508 15C15.1764 13.1355 15.6566 11.0816 15.6533 9C15.6533 6.8445 15.1485 4.8075 14.2508 3M6.75001 6.75H7.68451C7.8474 6.75007 8.00584 6.80317 8.13587 6.90127C8.26591 6.99937 8.36047 7.13714 8.40526 7.29375L9.59476 11.4562C9.63956 11.6129 9.73412 11.7506 9.86415 11.8487C9.99419 11.9468 10.1526 11.9999 10.3155 12H11.25M12 6.75H11.94C11.7236 6.74991 11.5097 6.79665 11.3131 6.88701C11.1164 6.97738 10.9417 7.10922 10.8008 7.2735L7.20001 11.4765C7.05904 11.6409 6.88416 11.7728 6.68737 11.8631C6.49058 11.9535 6.27656 12.0002 6.06001 12H6.00001" stroke="white" stroke-width="2" stroke-linecap="round" stroke-linejoin="round"/>
</svg>
