<svg width="200" height="200" viewBox="0 0 200 200" fill="none" xmlns="http://www.w3.org/2000/svg">
<rect width="200" height="200" fill="#151515"/>
<path d="M86.5735 139.536C78.8082 139.536 71.7255 138 65.3255 134.928C59.0108 131.771 53.9762 127.035 50.2215 120.72C46.4668 114.405 44.5895 106.512 44.5895 97.04C44.5895 90.0427 45.6988 83.856 47.9175 78.48C50.1362 73.0187 53.1655 68.4107 57.0055 64.656C60.8455 60.9013 65.2402 58.0853 70.1895 56.208C75.2242 54.2453 80.5148 53.264 86.0615 53.264C92.2055 53.264 97.5388 54.3733 102.062 56.592C106.584 58.7253 110.296 61.2853 113.198 64.272L101.678 78.352C99.6295 76.56 97.4535 75.1093 95.1495 74C92.9308 72.8053 90.1575 72.208 86.8295 72.208C81.1975 72.208 76.5042 74.3413 72.7495 78.608C68.9948 82.7893 67.1175 88.6773 67.1175 96.272C67.1175 104.037 68.8668 110.053 72.3655 114.32C75.9495 118.501 81.4535 120.592 88.8775 120.592C90.0722 120.592 91.2242 120.464 92.3335 120.208C93.5282 119.952 94.5095 119.568 95.2775 119.056V107.536H82.9895V89.616H114.734V129.296C111.832 132.112 107.864 134.544 102.83 136.592C97.8802 138.555 92.4615 139.536 86.5735 139.536ZM130.758 138V54.8H152.774V138H130.758Z" fill="white"/>
</svg>
